<!DOCTYPE svg PUBLIC "-//W3C//DTD SVG 20010904//EN" "http://www.w3.org/TR/2001/REC-SVG-20010904/DTD/svg10.dtd">
<svg version="1.0" xmlns="http://www.w3.org/2000/svg" width="51px" height="51px" viewBox="0 0 510 510" preserveAspectRatio="xMidYMid meet">
<g id="layer101" fill="#383838" stroke="none">
 <path d="M209 438 c-23 -40 -59 -102 -80 -138 -45 -78 -54 -115 -40 -168 40 -148 233 -179 318 -51 21 32 27 53 27 93 0 45 -9 66 -81 191 -44 76 -85 141 -91 143 -6 2 -29 -30 -53 -70z m98 -234 c15 -24 15 -29 2 -53 -21 -37 -77 -37 -98 0 -13 24 -13 29 2 53 12 18 26 26 47 26 21 0 35 -8 47 -26z"/>
 </g>

</svg>