<!DOCTYPE svg PUBLIC "-//W3C//DTD SVG 20010904//EN" "http://www.w3.org/TR/2001/REC-SVG-20010904/DTD/svg10.dtd">
<svg version="1.0" xmlns="http://www.w3.org/2000/svg" width="55px" height="40px" viewBox="0 0 550 400" preserveAspectRatio="xMidYMid meet">
<g id="layer101" fill="#010101" stroke="none">
 <path d="M12 388 c-8 -8 -12 -62 -12 -184 0 -144 3 -175 16 -188 13 -14 51 -16 263 -16 199 0 251 3 260 14 8 9 11 70 9 197 l-3 184 -260 3 c-194 2 -264 -1 -273 -10z m130 -104 l61 -55 26 25 c34 33 58 33 93 -1 l28 -27 58 57 c32 31 63 57 70 57 25 0 11 -26 -44 -81 l-56 -56 56 -53 c31 -29 56 -59 56 -66 0 -35 -29 -18 -114 65 -51 50 -97 91 -102 91 -5 0 -50 -40 -99 -90 -70 -71 -92 -87 -102 -78 -11 9 -3 22 43 69 l58 58 -58 61 c-49 51 -63 80 -39 80 3 0 32 -25 65 -56z"/>
 </g>

</svg>